<?xml version="1.0" standalone="no"?>
<!DOCTYPE svg PUBLIC "-//W3C//DTD SVG 20010904//EN"
 "http://www.w3.org/TR/2001/REC-SVG-20010904/DTD/svg10.dtd">
<svg version="1.0" xmlns="http://www.w3.org/2000/svg"
 width="280.000000pt" height="280.000000pt" viewBox="0 0 280.000000 280.000000"
 preserveAspectRatio="xMidYMid meet">
<metadata>
Created by potrace 1.14, written by Peter Selinger 2001-2017
</metadata>
<g transform="translate(0.000000,280.000000) scale(0.100000,-0.100000)"
fill="#000000" stroke="none">
<path d="M2090 2750 l0 -50 -50 0 -50 0 0 -50 0 -50 -50 0 -50 0 0 -200 0
-200 50 0 50 0 0 -150 0 -150 50 0 50 0 0 -150 0 -150 -50 0 -50 0 0 50 0 50
-50 0 -50 0 0 100 0 100 -50 0 -50 0 0 50 0 50 -50 0 -50 0 0 50 0 50 -50 0
-50 0 0 50 0 50 50 0 50 0 0 100 0 100 -50 0 -50 0 0 50 0 50 -50 0 -50 0 0
50 0 50 -50 0 -50 0 0 50 0 50 -100 0 -100 0 0 -50 0 -50 -50 0 -50 0 0 -50 0
-50 -50 0 -50 0 0 -50 0 -50 50 0 50 0 0 -50 0 -50 50 0 50 0 0 50 0 50 100 0
100 0 0 -100 0 -100 -150 0 -150 0 0 -50 0 -50 -150 0 -150 0 0 -50 0 -50 -50
0 -50 0 0 -50 0 -50 -50 0 -50 0 0 -100 0 -100 -100 0 -100 0 0 100 0 100 50
0 50 0 0 100 0 100 50 0 50 0 0 100 0 100 50 0 50 0 0 50 0 50 50 0 50 0 0
100 0 100 -50 0 -50 0 0 50 0 50 -50 0 -50 0 0 -50 0 -50 -50 0 -50 0 0 -100
0 -100 -50 0 -50 0 0 100 0 100 -50 0 -50 0 0 50 0 50 -50 0 -50 0 0 -50 0
-50 -45 0 -45 0 0 -100 0 -100 45 0 45 0 0 -50 0 -50 50 0 50 0 0 -100 0 -100
-50 0 -50 0 0 -100 0 -100 -45 0 -45 0 0 -150 0 -150 45 0 45 0 0 -50 0 -50
50 0 50 0 0 -50 0 -50 100 0 100 0 0 -100 0 -100 50 0 50 0 0 -150 0 -150 -50
0 -50 0 0 -150 0 -150 50 0 50 0 0 -50 0 -50 -100 0 -100 0 0 -50 0 -50 -50 0
-50 0 0 -100 0 -100 50 0 50 0 0 -50 0 -50 150 0 150 0 0 -50 0 -50 550 0 550
0 0 50 0 50 150 0 150 0 0 50 0 50 50 0 50 0 0 100 0 100 -50 0 -50 0 0 50 0
50 -100 0 -100 0 0 50 0 50 50 0 50 0 0 150 0 150 -50 0 -50 0 0 150 0 150 50
0 50 0 0 50 0 50 50 0 50 0 0 50 0 50 50 0 50 0 0 50 0 50 50 0 50 0 0 50 0
50 50 0 50 0 0 150 0 150 -50 0 -50 0 0 150 0 150 -50 0 -50 0 0 150 0 150
100 0 100 0 0 -100 0 -100 50 0 50 0 0 -50 0 -50 50 0 50 0 0 50 0 50 50 0 50
0 0 73 c0 41 3 108 6 150 l7 77 -57 0 -56 0 0 50 0 50 -50 0 -50 0 0 50 0 50
-200 0 -200 0 0 -50z m-1100 -2000 l0 -50 250 0 250 0 0 50 0 50 100 0 100 0
0 -100 0 -100 -50 0 -50 0 0 -50 0 -50 -50 0 -50 0 0 -50 0 -50 -250 0 -250 0
0 50 0 50 -50 0 -50 0 0 50 0 50 -50 0 -50 0 0 100 0 100 100 0 100 0 0 -50z"/>
</g>
</svg>
